<?xml version="1.0" encoding="UTF-8"?>
<svg width="24px" height="24px" viewBox="0 0 24 24" version="1.1" xmlns="http://www.w3.org/2000/svg">
    <g stroke="none" stroke-width="1" fill="none" fill-rule="evenodd">
        <path d="M19,3 L18,3 L18,1 L16,1 L16,3 L8,3 L8,1 L6,1 L6,3 L5,3 C3.89,3 3,3.89 3,5 L3,19 C3,20.11 3.89,21 5,21 L19,21 C20.11,21 21,20.11 21,19 L21,5 C21,3.89 20.11,3 19,3 Z M19,19 L5,19 L5,8 L19,8 L19,19 Z M19,6 L5,6 L5,5 L19,5 L19,6 Z M7,10 L12,10 L12,15 L7,15 L7,10 Z" fill="#000000"/>
    </g>
</svg> 