<?xml version="1.0" encoding="UTF-8"?>
<svg width="100px" height="100px" viewBox="0 0 100 100" version="1.1" xmlns="http://www.w3.org/2000/svg" xmlns:xlink="http://www.w3.org/1999/xlink">
    <title>empty_icon</title>
    <g stroke="none" stroke-width="1" fill="none" fill-rule="evenodd">
        <path d="M86,20 L86,74 C86,77.3137 83.3137,80 80,80 L20,80 C16.6863,80 14,77.3137 14,74 L14,20 C14,16.6863 16.6863,14 20,14 L80,14 C83.3137,14 86,16.6863 86,20 Z" stroke="#CCCCCC" stroke-width="2"></path>
        <path d="M34,41 L66,41 C67.1046,41 68,41.8954 68,43 L68,57 C68,58.1046 67.1046,59 66,59 L34,59 C32.8954,59 32,58.1046 32,57 L32,43 C32,41.8954 32.8954,41 34,41 Z" stroke="#CCCCCC" stroke-width="2"></path>
        <line x1="35" y1="35" x2="65" y2="35" stroke="#CCCCCC" stroke-width="2" stroke-linecap="round"></line>
        <line x1="40" y1="29" x2="60" y2="29" stroke="#CCCCCC" stroke-width="2" stroke-linecap="round"></line>
        <line x1="35" y1="65" x2="65" y2="65" stroke="#CCCCCC" stroke-width="2" stroke-linecap="round"></line>
        <line x1="40" y1="71" x2="60" y2="71" stroke="#CCCCCC" stroke-width="2" stroke-linecap="round"></line>
    </g>
</svg> 