<?xml version="1.0" encoding="UTF-8"?>
<svg width="64px" height="64px" viewBox="0 0 64 64" version="1.1" xmlns="http://www.w3.org/2000/svg" xmlns:xlink="http://www.w3.org/1999/xlink">
    <title>error_icon</title>
    <g stroke="none" stroke-width="1" fill="none" fill-rule="evenodd">
        <circle fill="#F5F5F5" cx="32" cy="32" r="28"></circle>
        <path d="M32,8 C18.745,8 8,18.745 8,32 C8,45.255 18.745,56 32,56 C45.255,56 56,45.255 56,32 C56,18.745 45.255,8 32,8 Z M32,52 C20.954,52 12,43.046 12,32 C12,20.954 20.954,12 32,12 C43.046,12 52,20.954 52,32 C52,43.046 43.046,52 32,52 Z" fill="#CCCCCC" fill-rule="nonzero"></path>
        <path d="M38.828,25.172 C39.4128319,25.7568319 39.4128319,26.6991681 38.828,27.284 L33.112,33 L38.828,38.716 C39.4128319,39.3008319 39.4128319,40.2431681 38.828,40.828 C38.2431681,41.4128319 37.3008319,41.4128319 36.716,40.828 L31,35.112 L25.284,40.828 C24.6991681,41.4128319 23.7568319,41.4128319 23.172,40.828 C22.5871681,40.2431681 22.5871681,39.3008319 23.172,38.716 L28.888,33 L23.172,27.284 C22.5871681,26.6991681 22.5871681,25.7568319 23.172,25.172 C23.7568319,24.5871681 24.6991681,24.5871681 25.284,25.172 L31,30.888 L36.716,25.172 C37.3008319,24.5871681 38.2431681,24.5871681 38.828,25.172 Z" fill="#CCCCCC"></path>
    </g>
</svg> 