<?xml version="1.0" encoding="UTF-8"?>
<svg width="24px" height="24px" viewBox="0 0 24 24" version="1.1" xmlns="http://www.w3.org/2000/svg" xmlns:xlink="http://www.w3.org/1999/xlink">
    <g stroke="none" stroke-width="1" fill="none" fill-rule="evenodd">
        <path d="M18,4 L19,4 C20.1045695,4 21,4.8954305 21,6 L21,19 C21,20.1045695 20.1045695,21 19,21 L5,21 C3.8954305,21 3,20.1045695 3,19 L3,6 C3,4.8954305 3.8954305,4 5,4 L6,4 L6,3 C6,2.44771525 6.44771525,2 7,2 C7.55228475,2 8,2.44771525 8,3 L8,4 L16,4 L16,3 C16,2.44771525 16.4477153,2 17,2 C17.5522847,2 18,2.44771525 18,3 L18,4 Z M5,10 L5,19 L19,19 L19,10 L5,10 Z M5,8 L19,8 L19,6 L5,6 L5,8 Z M8,14 C7.44771525,14 7,13.5522847 7,13 C7,12.4477153 7.44771525,12 8,12 C8.55228475,12 9,12.4477153 9,13 C9,13.5522847 8.55228475,14 8,14 Z M12,14 C11.4477153,14 11,13.5522847 11,13 C11,12.4477153 11.4477153,12 12,12 C12.5522847,12 13,12.4477153 13,13 C13,13.5522847 12.5522847,14 12,14 Z M16,14 C15.4477153,14 15,13.5522847 15,13 C15,12.4477153 15.4477153,12 16,12 C16.5522847,12 17,12.4477153 17,13 C17,13.5522847 16.5522847,14 16,14 Z M8,18 C7.44771525,18 7,17.5522847 7,17 C7,16.4477153 7.44771525,16 8,16 C8.55228475,16 9,16.4477153 9,17 C9,17.5522847 8.55228475,18 8,18 Z M12,18 C11.4477153,18 11,17.5522847 11,17 C11,16.4477153 11.4477153,16 12,16 C12.5522847,16 13,16.4477153 13,17 C13,17.5522847 12.5522847,18 12,18 Z M16,18 C15.4477153,18 15,17.5522847 15,17 C15,16.4477153 15.4477153,16 16,16 C16.5522847,16 17,16.4477153 17,17 C17,17.5522847 16.5522847,18 16,18 Z" fill="#000000" fill-rule="nonzero"></path>
    </g>
</svg> 