<?xml version="1.0" encoding="UTF-8"?>
<svg width="24px" height="24px" viewBox="0 0 24 24" version="1.1" xmlns="http://www.w3.org/2000/svg" xmlns:xlink="http://www.w3.org/1999/xlink">
    <title>eye_open</title>
    <g id="eye_open" stroke="none" stroke-width="1" fill="none" fill-rule="evenodd">
        <path d="M12,4.5 C16.5,4.5 20.27,7.61 22,12 C20.27,16.39 16.5,19.5 12,19.5 C7.5,19.5 3.73,16.39 2,12 C3.73,7.61 7.5,4.5 12,4.5 Z M12,17 C14.76,17 17,14.76 17,12 C17,9.24 14.76,7 12,7 C9.24,7 7,9.24 7,12 C7,14.76 9.24,17 12,17 Z M12,15 C10.35,15 9,13.65 9,12 C9,10.35 10.35,9 12,9 C13.65,9 15,10.35 15,12 C15,13.65 13.65,15 12,15 Z" id="形状" fill="#666666"></path>
    </g>
</svg> 