<?xml version="1.0" encoding="UTF-8"?>
<svg width="24px" height="24px" viewBox="0 0 24 24" version="1.1" xmlns="http://www.w3.org/2000/svg" xmlns:xlink="http://www.w3.org/1999/xlink">
    <title>eye_close</title>
    <g id="eye_close" stroke="none" stroke-width="1" fill="none" fill-rule="evenodd">
        <path d="M12,6.5 C15.79,6.5 19.17,8.63 20.82,12 C20.23,13.25 19.38,14.34 18.34,15.18 L16.91,13.75 C17.6,13.11 18.16,12.32 18.55,11.44 C17.4,9.19 14.87,7.64 12,7.64 C11.19,7.64 10.41,7.77 9.67,8.01 L8.19,6.53 C9.36,6.19 10.65,6 12,6 L12,6.5 Z M2,3.27 L4.28,5.55 L4.73,6 C3.08,7.3 1.78,9.02 1,11 C2.73,15.39 7,18 12,18 C13.55,18 15.03,17.72 16.38,17.19 L16.81,17.62 L19.73,20.54 L21,19.27 L3.27,1.54 L2,2.81 L2,3.27 Z M9.91,10.09 L11.82,12 L12,12 C10.35,12 9,10.65 9,9 L9,8.82 L9.91,9.73 L9.91,10.09 Z M12.09,12.09 L14.07,14.07 C13.44,14.62 12.73,15 12,15 C10.35,15 9,13.65 9,12 C9,11.27 9.38,10.56 9.93,9.93 L12.09,12.09 Z" id="形状" fill="#666666"></path>
    </g>
</svg> 