<?xml version="1.0" encoding="UTF-8"?>
<svg width="24px" height="24px" viewBox="0 0 24 24" version="1.1" xmlns="http://www.w3.org/2000/svg" xmlns:xlink="http://www.w3.org/1999/xlink">
    <title>wechat</title>
    <g id="wechat" stroke="none" stroke-width="1" fill="none" fill-rule="evenodd">
        <path d="M9.5,4 C14.746,4 19,7.417 19,11.654 C19,15.89 14.746,19.308 9.5,19.308 C7.9976808,19.308 6.58515667,18.9782667 5.36176667,18.3997 L2,20 L2.95595833,16.8747167 C1.74515,15.4172333 1,13.6252 1,11.654 C1,7.417 5.25397895,4 9.5,4 Z M6.75,9.5 C6.06,9.5 5.5,10.06 5.5,10.75 C5.5,11.44 6.06,12 6.75,12 C7.44,12 8,11.44 8,10.75 C8,10.06 7.44,9.5 6.75,9.5 Z M12.25,9.5 C11.56,9.5 11,10.06 11,10.75 C11,11.44 11.56,12 12.25,12 C12.94,12 13.5,11.44 13.5,10.75 C13.5,10.06 12.94,9.5 12.25,9.5 Z" id="形状" fill="#07C160"></path>
    </g>
</svg> 