<?xml version="1.0" encoding="UTF-8"?>
<svg width="375px" height="812px" viewBox="0 0 375 812" version="1.1" xmlns="http://www.w3.org/2000/svg" xmlns:xlink="http://www.w3.org/1999/xlink">
    <title>register_bg</title>
    <defs>
        <linearGradient x1="100%" y1="0%" x2="0%" y2="100%" id="registerGradient">
            <stop stop-color="#1976d2" offset="0%"></stop>
            <stop stop-color="#64b5f6" offset="100%"></stop>
        </linearGradient>
        <linearGradient x1="50%" y1="0%" x2="50%" y2="100%" id="bgGradient">
            <stop stop-color="#FFFFFF" offset="0%"></stop>
            <stop stop-color="#F5F7FA" offset="100%"></stop>
        </linearGradient>
    </defs>
    <g id="register_bg" stroke="none" stroke-width="1" fill="none" fill-rule="evenodd">
        <!-- 背景 -->
        <rect id="bg" fill="url(#bgGradient)" x="0" y="0" width="375" height="812"></rect>
        
        <!-- 顶部渐变形状 -->
        <path d="M375,0 L0,0 L0,280 C101.666667,246.666667 196.666667,268.333333 285,345 C329.166667,383.333333 375,400 375,280 L375,0 Z" id="top" fill="url(#registerGradient)" opacity="0.9"></path>
        
        <!-- 底部渐变形状 -->
        <path d="M0,812 L375,812 L375,662 C300,722 225,730 150,686 C75,642 37.5,624 0,632 L0,812 Z" id="bottom" fill="url(#registerGradient)" opacity="0.6"></path>
        
        <!-- 装饰圆形1 -->
        <circle id="circle1" fill="#FFFFFF" opacity="0.2" cx="325" cy="200" r="20"></circle>
        
        <!-- 装饰圆形2 -->
        <circle id="circle2" fill="#FFFFFF" opacity="0.1" cx="55" cy="150" r="40"></circle>
        
        <!-- 装饰圆形3 -->
        <circle id="circle3" fill="#FFFFFF" opacity="0.1" cx="95" cy="650" r="30"></circle>
        
        <!-- 装饰线条1 -->
        <path d="M345,300 C325,320 305,310 285,330" id="line1" stroke="#FFFFFF" stroke-width="2" opacity="0.3" stroke-linecap="round"></path>
        
        <!-- 装饰线条2 -->
        <path d="M55,400 C35,420 15,410 -5,430" id="line2" stroke="#FFFFFF" stroke-width="2" opacity="0.2" stroke-linecap="round"></path>
        
        <!-- 装饰点1 -->
        <circle id="dot1" fill="#FFFFFF" opacity="0.4" cx="280" cy="350" r="5"></circle>
        
        <!-- 装饰点2 -->
        <circle id="dot2" fill="#FFFFFF" opacity="0.3" cx="320" cy="380" r="3"></circle>
        
        <!-- 装饰点3 -->
        <circle id="dot3" fill="#FFFFFF" opacity="0.4" cx="50" cy="530" r="4"></circle>
        
        <!-- 装饰点4 -->
        <circle id="dot4" fill="#FFFFFF" opacity="0.3" cx="90" cy="550" r="2"></circle>
    </g>
</svg> 